/* XPM */
static char * tricycle_xpm[] = {
"32 32 370 2",
"  	c None",
". 	c #DA0000",
"+ 	c #C3EDEA",
"@ 	c #EF9995",
"# 	c #D50000",
"$ 	c #5E9999",
"% 	c #5FAEAE",
"& 	c #4696B5",
"* 	c #9BC2D2",
"= 	c #F0FEF5",
"- 	c #D95B58",
"; 	c #D00000",
"> 	c #669091",
", 	c #6FA4A4",
"' 	c #325D5F",
") 	c #193739",
"! 	c #1B4042",
"~ 	c #184143",
"{ 	c #2D5354",
"] 	c #3A6C89",
"^ 	c #135681",
"/ 	c #376588",
"( 	c #CBE1E3",
"_ 	c #FFC9C1",
": 	c #5B8182",
"< 	c #7FAAAA",
"[ 	c #50288D",
"} 	c #59248B",
"| 	c #085887",
"1 	c #468CAF",
"2 	c #2C5E5F",
"3 	c #365F61",
"4 	c #3F6567",
"5 	c #A8CDCD",
"6 	c #A95082",
"7 	c #563B9C",
"8 	c #D35974",
"9 	c #688788",
"0 	c #0F3436",
"a 	c #3D696A",
"b 	c #3A6B6C",
"c 	c #7D8D7F",
"d 	c #FE490E",
"e 	c #FF3100",
"f 	c #E8792E",
"g 	c #C4ECF4",
"h 	c #88BCBB",
"i 	c #B5A3A1",
"j 	c #FE938F",
"k 	c #FF8C83",
"l 	c #F4848C",
"m 	c #F59597",
"n 	c #5A9292",
"o 	c #CE571D",
"p 	c #FFC508",
"q 	c #FE4B00",
"r 	c #8FB5B5",
"s 	c #3C8282",
"t 	c #4C9393",
"u 	c #F88484",
"v 	c #FC898A",
"w 	c #FF4A00",
"x 	c #F95000",
"y 	c #DD613B",
"z 	c #3E9A9D",
"A 	c #215C60",
"B 	c #F68283",
"C 	c #A63C1E",
"D 	c #DD4F03",
"E 	c #FF5600",
"F 	c #969E93",
"G 	c #1F6265",
"H 	c #894222",
"I 	c #E6B335",
"J 	c #696C31",
"K 	c #1E2925",
"L 	c #001C23",
"M 	c #0F211A",
"N 	c #141215",
"O 	c #00131F",
"P 	c #F12B00",
"Q 	c #B69782",
"R 	c #6EC3C6",
"S 	c #7A2916",
"T 	c #9BCBCB",
"U 	c #89C0BF",
"V 	c #91C5C5",
"W 	c #A4D0CF",
"X 	c #9ECCCB",
"Y 	c #E05D15",
"Z 	c #002A2E",
"` 	c #00191F",
" .	c #4B686B",
"..	c #83A3A4",
"+.	c #7C9B9C",
"@.	c #2B4A4C",
"#.	c #000E16",
"$.	c #EB3201",
"%.	c #FC2A00",
"&.	c #476660",
"*.	c #672C21",
"=.	c #B54B15",
"-.	c #67ACAB",
";.	c #68A2A3",
">.	c #4A9192",
",.	c #5BA3A3",
"'.	c #72B2B1",
").	c #EF5915",
"!.	c #223C3F",
"~.	c #CCEFEF",
"{.	c #082D30",
"].	c #072528",
"^.	c #719495",
"/.	c #548080",
"(.	c #C61800",
"_.	c #C22200",
":.	c #820A00",
"<.	c #450B07",
"[.	c #837A69",
"}.	c #7EBFC0",
"|.	c #6CAEAD",
"1.	c #B0D7D7",
"2.	c #AAD4D3",
"3.	c #94C7C6",
"4.	c #58A0A0",
"5.	c #7BB3B3",
"6.	c #AC6B47",
"7.	c #5F391F",
"8.	c #031F23",
"9.	c #6B8E8E",
"0.	c #396162",
"a.	c #446B6D",
"b.	c #01181B",
"c.	c #001317",
"d.	c #471915",
"e.	c #E92D00",
"f.	c #9F1000",
"g.	c #1D1818",
"h.	c #4E100C",
"i.	c #8E5027",
"j.	c #71AEA4",
"k.	c #67ACAC",
"l.	c #4E9C9B",
"m.	c #429494",
"n.	c #429493",
"o.	c #559E9E",
"p.	c #64ABAF",
"q.	c #B93207",
"r.	c #001E24",
"s.	c #5A7E7F",
"t.	c #001E21",
"u.	c #114143",
"v.	c #93BCBC",
"w.	c #000E12",
"x.	c #001A20",
"y.	c #B81D00",
"z.	c #BF1F00",
"A.	c #650901",
"B.	c #001C21",
"C.	c #371512",
"D.	c #8E2D18",
"E.	c #607865",
"F.	c #187A7E",
"G.	c #11767B",
"H.	c #187B7E",
"I.	c #228284",
"J.	c #258182",
"K.	c #1F8386",
"L.	c #AB5F36",
"M.	c #A82E00",
"N.	c #2E645F",
"O.	c #1E5556",
"P.	c #2F6364",
"Q.	c #396565",
"R.	c #871E04",
"S.	c #001419",
"T.	c #416567",
"U.	c #06393A",
"V.	c #053739",
"W.	c #376264",
"X.	c #305659",
"Y.	c #401C19",
"Z.	c #E22B00",
"`.	c #930800",
" +	c #708E7B",
".+	c #001418",
"++	c #061A1D",
"@+	c #A00C00",
"#+	c #777864",
"$+	c #EF1A00",
"%+	c #F82E00",
"&+	c #C72700",
"*+	c #9A2B0B",
"=+	c #542C24",
"-+	c #5A3A2E",
";+	c #E93100",
">+	c #1E2119",
",+	c #0C4345",
"'+	c #185253",
")+	c #175152",
"!+	c #1E5254",
"~+	c #326163",
"{+	c #9F4D2C",
"]+	c #55150C",
"^+	c #1E4042",
"/+	c #113133",
"(+	c #00191C",
"_+	c #00181B",
":+	c #314D4F",
"<+	c #B0FBFF",
"[+	c #FC7817",
"}+	c #BC1C00",
"|+	c #3E0703",
"1+	c #97C3C4",
"2+	c #000F13",
"3+	c #001B20",
"4+	c #740E03",
"5+	c #884838",
"6+	c #8B5540",
"7+	c #C31D00",
"8+	c #FF3B00",
"9+	c #C32502",
"0+	c #EA2E00",
"a+	c #FF4400",
"b+	c #E44401",
"c+	c #001923",
"d+	c #073537",
"e+	c #063436",
"f+	c #0A3E40",
"g+	c #7AA8AC",
"h+	c #1C4345",
"i+	c #A74624",
"j+	c #36110E",
"k+	c #305355",
"l+	c #537A7C",
"m+	c #527173",
"n+	c #426263",
"o+	c #BF7B63",
"p+	c #FE5100",
"q+	c #82271D",
"r+	c #87ACAC",
"s+	c #0F1B1C",
"t+	c #1A1113",
"u+	c #0F1417",
"v+	c #990500",
"w+	c #960800",
"x+	c #FF4100",
"y+	c #D42C01",
"z+	c #FF3A00",
"A+	c #FF3D00",
"B+	c #831405",
"C+	c #001A1E",
"D+	c #03181B",
"E+	c #03171A",
"F+	c #000F16",
"G+	c #889C7B",
"H+	c #2F5558",
"I+	c #AB4828",
"J+	c #341311",
"K+	c #123336",
"L+	c #9C8C7F",
"M+	c #830E00",
"N+	c #336465",
"O+	c #4B7D7E",
"P+	c #7A9D9D",
"Q+	c #022D35",
"R+	c #AA9C63",
"S+	c #7D6F4B",
"T+	c #5C8D92",
"U+	c #6F352E",
"V+	c #AC1E03",
"W+	c #881002",
"X+	c #09161D",
"Y+	c #4D332B",
"Z+	c #9E1600",
"`+	c #6B0F06",
" @	c #002428",
".@	c #062F31",
"+@	c #062D2F",
"@@	c #002B2D",
"#@	c #79A4A6",
"$@	c #3F6364",
"%@	c #AF5A2F",
"&@	c #3D100E",
"*@	c #1D3D40",
"=@	c #B0D2D2",
"-@	c #85A6A6",
";@	c #4B6A6C",
">@	c #57797A",
",@	c #C3E7E8",
"'@	c #C9F3F4",
")@	c #B5D9DA",
"!@	c #1A3C3F",
"~@	c #86C8C9",
"{@	c #6F3D19",
"]@	c #D42900",
"^@	c #D91A00",
"/@	c #043335",
"(@	c #013335",
"_@	c #043436",
":@	c #0E4143",
"<@	c #BE8949",
"[@	c #550C08",
"}@	c #011F23",
"|@	c #284547",
"1@	c #001013",
"2@	c #00171A",
"3@	c #001417",
"4@	c #AFD2D2",
"5@	c #416667",
"6@	c #CAEBEB",
"7@	c #BFE0E0",
"8@	c #7EB2B5",
"9@	c #C40F00",
"0@	c #EB3700",
"a@	c #F5742D",
"b@	c #779596",
"c@	c #4D7A7B",
"d@	c #811000",
"e@	c #53797A",
"f@	c #000F12",
"g@	c #031A1D",
"h@	c #143033",
"i@	c #3D6263",
"j@	c #002629",
"k@	c #618788",
"l@	c #CFEEED",
"m@	c #527275",
"n@	c #52613D",
"o@	c #AA582E",
"p@	c #101518",
"q@	c #2A484B",
"r@	c #365759",
"s@	c #5B7C7E",
"t@	c #1F4143",
"u@	c #05272A",
"v@	c #000A0D",
"w@	c #C0E5E5",
"x@	c #002023",
"y@	c #711000",
"z@	c #00181C",
"A@	c #658788",
"B@	c #325457",
"C@	c #B1DADA",
"D@	c #000B0E",
"E@	c #000C0F",
"F@	c #93B9BA",
"G@	c #3A5E60",
"H@	c #254F51",
"I@	c #AF9280",
"J@	c #420903",
"K@	c #001C20",
"L@	c #395456",
"M@	c #B9DCDC",
"N@	c #517475",
"O@	c #A9D1D1",
"P@	c #3C5557",
"Q@	c #AC8D7B",
"R@	c #59200E",
"S@	c #002229",
"T@	c #001E22",
"U@	c #092529",
"V@	c #163436",
"W@	c #00161B",
"X@	c #2A5151",
"Y@	c #9F6F45",
"Z@	c #625D45",
"`@	c #3F5546",
" #	c #2C4E4A",
".#	c #758469",
"                                                                ",
"                                                                ",
"                                                                ",
"                                                        .       ",
"                                                      + @ . #   ",
"                                        $ %           & * = - ; ",
"                                    > , ' ) ! ~ {     ] ^ / ( _ ",
"                                : <                   [ }   | 1 ",
"              2 3             4 5                     6 7 8     ",
"          9 0 a   b c d e f g h                     i j k l m   ",
"            n       o p q r s t                           u v   ",
"                    w x y z A                               B   ",
"                  C D E F G H                                   ",
"        I J K L M N O P Q R S       T U V W X                   ",
"      Y Z `  ...+.@.#.$.%.&.*.=.  -.;.    >.,.'.                ",
"    ).Z !.~.  {.].^./.(._.:.<.[.}.|.1.2.3.  4.5.                ",
"  6.7.8.9.0.  a.b.c.d.e.f.g.h.i.j.k.l.m.n.m.o.p.                ",
"  q.r.s.t.u.  v.w.x.y.z.A.B.C.D.E.F.G.H.I.J.K.L.M.N.O.P.Q.      ",
"  R.S.T.U.V.W.  X.Y.Z.`. +.+++@+#+$+%+&+*+=+-+;+>+,+'+)+!+~+    ",
"{+]+^+/+(+_+:+  <+[+}+|+1+2+3+4+5+6+7+8+9+0+a+b+c+d+e+f+g+h+    ",
"i+j+k+l+m+n+    o+p+q+c.r+s+t+u+v+w+x+y+z+8+A+B+C+D+E+F+G+H+    ",
"I+J+K+          L+M+N+O+P+Q+R+S+T+U+V+W+X+Y+Z+`+ @.@+@@@#@$@    ",
"%@&@*@=@-@;@>@  ,@'@)@!@~@{@]@^@                  /@(@_@:@      ",
"<@[@}@|@1@2@3@  4@5@6@7@8@9@0@a@                    b@c@        ",
"  d@S.e@f@g@h@  i@j@k@l@m@n@                                    ",
"  o@p@q@r@2+s@  t@u@v@w@x@                                      ",
"    y@z@A@B@  C@D@E@F@G@H@                                      ",
"    I@J@K@L@  M@N@O@P@0                                         ",
"      Q@R@S@T@U@V@W@X@                                          ",
"          Y@Z@`@ #.#                                            ",
"                                                                ",
"                                                                "};
